<svg xmlns="http://www.w3.org/2000/svg" width="63" height="47" fill="none"  xmlns:v="https://vecta.io/nano"><path d="M29.233 9.851l2.459 5.297 2.135-5.435c2.167-5.517 8.59-8.055 15.074-6.972C55.261 3.802 60.5 8.168 60.5 15.298c0 7.625-4.978 14.866-11.488 20.364-3.212 2.712-6.685 4.9-9.861 6.4-3.237 1.529-5.938 2.236-7.651 2.236s-4.414-.707-7.651-2.236c-3.176-1.5-6.649-3.688-9.861-6.4C7.478 30.164 2.5 22.923 2.5 15.298c0-7.189 5.06-11.51 11.231-12.559 6.283-1.068 12.854 1.41 15.501 7.112z" stroke="#5b5b5b" stroke-width="5"/></svg>