<svg xmlns="http://www.w3.org/2000/svg" width="202" height="162" fill="none"  stroke="#5b5b5b" xmlns:v="https://vecta.io/nano"><circle cx="84.064" cy="114.904" r="34.564" stroke-width="25"/><g stroke-width="11"><circle cx="47.064" cy="48.064" r="41.564"/><path d="M158.338 90.204c-8.653 4.996-17.554 7.155-24.792 6.851-7.318-.306-12.109-3.014-14.289-6.79s-2.129-9.279 1.264-15.77c3.357-6.42 9.677-13.049 18.33-18.045s17.554-7.155 24.792-6.851c7.318.306 12.109 3.014 14.289 6.79s2.129 9.279-1.264 15.77c-3.357 6.42-9.677 13.049-18.33 18.045zm-26.134-33.866c-4.996 8.653-11.625 14.973-18.045 18.33-6.491 3.393-11.994 3.444-15.77 1.264s-6.483-6.972-6.79-14.289c-.303-7.238 1.856-16.139 6.851-24.792s11.625-14.973 18.045-18.33c6.49-3.393 11.994-3.444 15.769-1.265s6.484 6.972 6.79 14.289c.303 7.238-1.855 16.139-6.851 24.792zM162.376 95.5c9.992 0 18.779 2.581 24.896 6.463 6.184 3.924 8.98 8.664 8.98 13.024s-2.796 9.101-8.98 13.025c-6.117 3.882-14.904 6.462-24.896 6.462s-18.779-2.58-24.896-6.462c-6.184-3.924-8.98-8.665-8.98-13.025s2.796-9.1 8.98-13.024c6.117-3.882 14.904-6.463 24.896-6.463z"/></g></svg>