<svg xmlns="http://www.w3.org/2000/svg" width="50" height="46" fill="none"  xmlns:v="https://vecta.io/nano"><mask id="A" mask-type="alpha" maskUnits="userSpaceOnUse" x="0" y="0" width="50" height="46"><path d="M36.392 16.783L26.803 1.29c-.416-.661-1.117-.992-1.817-.992s-1.401.331-1.817 1.016l-9.588 15.47H3.095c-1.204 0-2.189 1.063-2.189 2.362 0 .213.022.425.088.638l5.56 21.894c.503 1.984 2.189 3.448 4.203 3.448h28.459c2.014 0 3.7-1.464 4.225-3.448l5.56-21.894.066-.638c0-1.299-.985-2.362-2.189-2.362H36.392zm-17.973 0l6.567-10.392 6.567 10.392H18.419zm6.567 18.894c-2.408 0-4.378-2.126-4.378-4.724s1.97-4.724 4.378-4.724 4.378 2.126 4.378 4.724-1.97 4.724-4.378 4.724z" fill="url(#C)"/><path fill="url(#D)" d="M16.62 24.095h16.762v12.571H16.62z"/></mask><g mask="url(#A)"><g filter="url(#B)"><path transform="rotate(270 -44.681 47.634)" fill="#ffcb7c" d="M-44.681 47.634h32.481v139.091h-32.481z"/><path transform="rotate(270 -44.681 26.22)" fill="#86b6e2" d="M-44.681 26.22h32.481v139.091h-32.481z"/><path transform="rotate(270 -44.681 67.617)" fill="#ec9f9f" d="M-44.681 67.617h32.481v139.091h-32.481z"/></g></g><defs><filter id="B" x="-44.681" y="-10.261" width="143.091" height="77.877" filterUnits="userSpaceOnUse" color-interpolation-filters="sRGB"><feFlood flood-opacity="0" result="A"/><feColorMatrix in="SourceAlpha" values="0 0 0 0 0 0 0 0 0 0 0 0 0 0 0 0 0 0 127 0"/><feOffset dx="4" dy="-4"/><feColorMatrix values="0 0 0 0 0.360784 0 0 0 0 0.34902 0 0 0 0 0.333333 0 0 0 1 0"/><feBlend in2="A"/><feBlend in="SourceGraphic"/></filter><linearGradient id="C" x1="-6.318" y1="10.159" x2="54.978" y2="39.479" gradientUnits="userSpaceOnUse"><stop offset=".266" stop-color="#7fa1c5"/><stop offset=".526" stop-color="#dda960"/><stop offset=".859" stop-color="#cc8b8c"/></linearGradient><linearGradient id="D" x1="14.106" y1="26.861" x2="33.489" y2="38.367" gradientUnits="userSpaceOnUse"><stop offset=".266" stop-color="#7fa1c5"/><stop offset=".526" stop-color="#dda960"/><stop offset=".859" stop-color="#cc8b8c"/></linearGradient></defs></svg>