<svg xmlns="http://www.w3.org/2000/svg" width="253" height="203" fill="none" stroke="#5b5b5b"  xmlns:v="https://vecta.io/nano"><circle cx="105" cy="144" r="46.5" fill="#deeeeb" stroke-width="25"/><g stroke-width="11"><circle cx="59" cy="60" r="53.5" fill="#7fa1c5"/><path d="M199.147 114.263c-11.038 6.373-22.453 9.165-31.827 8.772-9.454-.396-16.004-3.916-19.058-9.205s-2.827-12.722 1.557-21.107c4.347-8.315 12.472-16.804 23.511-23.177s22.453-9.165 31.828-8.773c9.454.396 16.003 3.916 19.057 9.205s2.828 12.722-1.556 21.107c-4.348 8.315-12.473 16.804-23.512 23.178z" fill="#e67e87"/><path d="M166.903 71.307c-6.374 11.039-14.863 19.164-23.178 23.511-8.385 4.384-15.817 4.611-21.107 1.557s-8.809-9.604-9.205-19.057c-.393-9.374 2.399-20.789 8.773-31.828s14.862-19.164 23.177-23.511c8.385-4.384 15.817-4.611 21.107-1.557s8.809 9.604 9.205 19.058c.393 9.374-2.399 20.789-8.772 31.828z" fill="#ffc266"/><path d="M203.5 118.5c12.801 0 24.13 3.26 32.083 8.241 8.029 5.028 11.917 11.274 11.917 17.259s-3.888 12.231-11.917 17.259c-7.953 4.981-19.282 8.241-32.083 8.241s-24.13-3.26-32.083-8.241C163.388 156.231 159.5 149.985 159.5 144s3.888-12.231 11.917-17.259c7.953-4.981 19.282-8.241 32.083-8.241z" fill="#d0e495"/></g></svg>