<svg xmlns="http://www.w3.org/2000/svg" width="42" height="63" fill="none"  xmlns:v="https://vecta.io/nano"><path d="M15.938 39.594c0-3.042.344-5.438 1.031-7.188.687-1.771 1.802-3.302 3.344-4.594s2.708-2.469 3.5-3.531c.813-1.083 1.219-2.271 1.219-3.562 0-3.146-1.354-4.719-4.062-4.719-1.25 0-2.261.458-3.031 1.375s-1.177 2.156-1.219 3.719H6.156c.042-4.167 1.354-7.406 3.938-9.719 2.583-2.333 6.208-3.5 10.875-3.5 4.646 0 8.24 1.073 10.781 3.219 2.563 2.146 3.844 5.198 3.844 9.156 0 1.729-.344 3.302-1.031 4.719s-1.792 2.864-3.312 4.344l-3.594 3.344c-1.021.979-1.729 1.99-2.125 3.031-.396 1.021-.614 2.323-.656 3.906h-8.937zm-1.281 9.5c0-1.542.552-2.802 1.656-3.781 1.125-1 2.521-1.5 4.188-1.5s3.052.5 4.156 1.5c1.125.979 1.688 2.24 1.688 3.781s-.563 2.812-1.688 3.812c-1.104.979-2.489 1.469-4.156 1.469s-3.062-.49-4.187-1.469c-1.104-1-1.656-2.271-1.656-3.812z" fill="#5b5b5b"/></svg>