<svg width="42" height="63" viewBox="0 0 42 63" fill="none" xmlns="http://www.w3.org/2000/svg">
<path d="M25.0625 39.5938H16.5312L15.1875 8.5H26.4062L25.0625 39.5938ZM14.875 49.2812C14.875 47.7396 15.4271 46.4792 16.5312 45.5C17.6562 44.5 19.0521 44 20.7188 44C22.3854 44 23.7708 44.5 24.875 45.5C26 46.4792 26.5625 47.7396 26.5625 49.2812C26.5625 50.8229 26 52.0938 24.875 53.0938C23.7708 54.0729 22.3854 54.5625 20.7188 54.5625C19.0521 54.5625 17.6562 54.0729 16.5312 53.0938C15.4271 52.0938 14.875 50.8229 14.875 49.2812Z" fill="#5B5B5B"/>
</svg>
