<svg width="3658" height="4545" viewBox="0 0 3658 4545" fill="none" xmlns="http://www.w3.org/2000/svg">
<rect width="3658" height="4545" fill="#DCC9CF"/>
<g filter="url(#filter0_iii)">
<path d="M1778.5 1006.52C1802.79 971.785 1854.21 971.785 1878.5 1006.52L3151.83 2828.05C3180.1 2868.48 3151.17 2924 3101.84 2924H555.165C505.832 2924 476.905 2868.48 505.169 2828.05L1778.5 1006.52Z" fill="#C12156"/>
</g>
<path d="M1401.2 3850C1401.2 3819.6 1431.6 3800.4 1477.2 3800.4C1498.8 3800.4 1520.4 3803.6 1541.2 3809.2C1541.2 3814.8 1541.2 3819.6 1541.2 3823.6C1541.2 3870.8 1524.4 3896.4 1475.6 3896.4C1433.2 3896.4 1401.2 3882.8 1401.2 3850ZM1638.8 3327.6H1524.4C1527.6 3343.6 1530 3368.4 1530 3380.4C1530 3397.2 1530.8 3430 1530.8 3469.2C1512.4 3470 1493.2 3470 1474.8 3470C1426.8 3470 1380.4 3467.6 1334.8 3462.8V3558C1382 3561.2 1427.6 3562.8 1474.8 3562.8C1493.2 3562.8 1512.4 3562.8 1531.6 3562C1532.4 3618.8 1535.6 3677.2 1537.2 3726.8C1521.2 3724.4 1503.6 3723.6 1485.2 3723.6C1376.4 3723.6 1307.6 3779.6 1307.6 3860.4C1307.6 3944.4 1376.4 3990.8 1486.8 3990.8C1594.8 3990.8 1638 3936.4 1642.8 3859.6C1674.8 3881.2 1706.8 3909.2 1740.4 3940.4L1795.6 3856.4C1757.2 3821.2 1706.8 3780.4 1640.4 3753.2C1637.2 3698.8 1633.2 3634.8 1631.6 3557.2C1675.6 3554 1717.2 3549.2 1755.6 3543.6V3443.6C1717.2 3451.6 1675.6 3458 1631.6 3462C1632.4 3426.8 1633.2 3397.2 1634 3379.6C1634.8 3362 1636.4 3342.8 1638.8 3327.6ZM1248.4 3336.4L1138 3326.8C1137.2 3352.4 1133.2 3382.8 1130 3405.2C1121.2 3466.8 1097.2 3618 1097.2 3738.8C1097.2 3847.6 1112.4 3938.8 1129.2 3994.8L1219.6 3987.6C1218.8 3976.4 1218 3962.8 1218 3954.8C1218 3946 1219.6 3928.4 1222 3917.2C1231.6 3874 1257.2 3792.4 1279.6 3726.8L1230.8 3686.8C1218.8 3714 1205.2 3741.2 1194.8 3769.2C1192.4 3753.2 1191.6 3733.2 1191.6 3717.2C1191.6 3637.2 1218 3461.2 1230 3407.6C1232.4 3393.2 1242 3352.4 1248.4 3336.4ZM1995.6 3350L1997.2 3454.8C2014.8 3451.6 2043.6 3449.2 2063.6 3447.6C2102 3445.2 2213.2 3439.6 2257.2 3438C2194 3503.6 1996.4 3664.4 1890 3746L1965.2 3825.2C2050.8 3738 2138 3658.8 2262 3658.8C2353.2 3658.8 2411.6 3706 2411.6 3769.2C2411.6 3874.8 2280.4 3922 2058.8 3893.2L2086.8 3997.2C2382.8 4021.2 2521.2 3928.4 2521.2 3770C2521.2 3658 2425.2 3574.8 2284.4 3574.8C2264.4 3574.8 2234.8 3577.2 2208.4 3585.2C2278 3532.4 2354.8 3470.8 2401.2 3436.4C2412.4 3429.2 2430.8 3417.2 2445.2 3409.2L2391.6 3338.8C2376.4 3342.8 2352.4 3346 2334 3347.6C2282 3350.8 2103.6 3353.2 2060.4 3353.2C2034 3353.2 2008.4 3351.6 1995.6 3350Z" fill="#333333"/>
<defs>
<filter id="filter0_iii" x="494.059" y="976.469" width="2672.88" height="1951.53" filterUnits="userSpaceOnUse" color-interpolation-filters="sRGB">
<feFlood flood-opacity="0" result="BackgroundImageFix"/>
<feBlend mode="normal" in="SourceGraphic" in2="BackgroundImageFix" result="shape"/>
<feColorMatrix in="SourceAlpha" type="matrix" values="0 0 0 0 0 0 0 0 0 0 0 0 0 0 0 0 0 0 127 0" result="hardAlpha"/>
<feOffset dx="364" dy="-181"/>
<feGaussianBlur stdDeviation="2"/>
<feComposite in2="hardAlpha" operator="arithmetic" k2="-1" k3="1"/>
<feColorMatrix type="matrix" values="0 0 0 0 0 0 0 0 0 0 0 0 0 0 0 0 0 0 0.25 0"/>
<feBlend mode="normal" in2="shape" result="effect1_innerShadow"/>
<feColorMatrix in="SourceAlpha" type="matrix" values="0 0 0 0 0 0 0 0 0 0 0 0 0 0 0 0 0 0 127 0" result="hardAlpha"/>
<feOffset dx="397" dy="244"/>
<feGaussianBlur stdDeviation="2"/>
<feComposite in2="hardAlpha" operator="arithmetic" k2="-1" k3="1"/>
<feColorMatrix type="matrix" values="0 0 0 0 0 0 0 0 0 0 0 0 0 0 0 0 0 0 0.25 0"/>
<feBlend mode="normal" in2="effect1_innerShadow" result="effect2_innerShadow"/>
<feColorMatrix in="SourceAlpha" type="matrix" values="0 0 0 0 0 0 0 0 0 0 0 0 0 0 0 0 0 0 127 0" result="hardAlpha"/>
<feOffset dx="1040" dy="206"/>
<feGaussianBlur stdDeviation="2"/>
<feComposite in2="hardAlpha" operator="arithmetic" k2="-1" k3="1"/>
<feColorMatrix type="matrix" values="0 0 0 0 0 0 0 0 0 0 0 0 0 0 0 0 0 0 0.25 0"/>
<feBlend mode="normal" in2="effect2_innerShadow" result="effect3_innerShadow"/>
</filter>
</defs>
</svg>
