<svg width="3562" height="4545" viewBox="0 0 3562 4545" fill="none" xmlns="http://www.w3.org/2000/svg">
<rect width="3562" height="4545" fill="#86B6E2"/>
<path opacity="0.7" d="M1600.34 2167C1600.34 2267.2 1620.08 2366.42 1658.42 2458.99C1696.76 2551.56 1752.97 2635.67 1823.82 2706.52C1894.67 2777.37 1978.78 2833.58 2071.35 2871.92C2163.92 2910.26 2263.14 2930 2363.34 2930L2363.34 2568.36C2310.63 2568.36 2258.44 2557.98 2209.75 2537.81C2161.05 2517.64 2116.8 2488.07 2079.54 2450.8C2042.27 2413.53 2012.7 2369.29 1992.53 2320.59C1972.36 2271.9 1961.98 2219.71 1961.98 2167L1600.34 2167Z" fill="#131313"/>
<path opacity="0.7" d="M1199 1404C1098.8 1404 999.584 1423.74 907.013 1462.08C814.441 1500.42 730.329 1556.63 659.478 1627.48C588.626 1698.33 532.424 1782.44 494.08 1875.01C455.736 1967.58 436 2066.8 436 2167L797.639 2167C797.639 2114.29 808.021 2062.1 828.191 2013.41C848.361 1964.71 877.925 1920.47 915.195 1883.2C952.465 1845.93 996.711 1816.36 1045.41 1796.19C1094.1 1776.02 1146.29 1765.64 1199 1765.64L1199 1404Z" fill="#131313"/>
<path opacity="0.7" d="M2363 1404C2262.8 1404 2163.58 1423.74 2071.01 1462.08C1978.44 1500.42 1894.33 1556.63 1823.48 1627.48C1752.63 1698.33 1696.42 1782.44 1658.08 1875.01C1619.74 1967.58 1600 2066.8 1600 2167L1961.64 2167C1961.64 2114.29 1972.02 2062.1 1992.19 2013.41C2012.36 1964.71 2041.93 1920.47 2079.2 1883.2C2116.47 1845.93 2160.71 1816.36 2209.41 1796.19C2258.1 1776.02 2310.29 1765.64 2363 1765.64L2363 1404Z" fill="#131313"/>
<path opacity="0.7" d="M1199 2930C1299.2 2930 1398.42 2910.26 1490.99 2871.92C1583.56 2833.58 1667.67 2777.37 1738.52 2706.52C1809.37 2635.67 1865.58 2551.56 1903.92 2458.99C1942.26 2366.42 1962 2267.2 1962 2167L1600.36 2167C1600.36 2219.71 1589.98 2271.9 1569.81 2320.59C1549.64 2369.29 1520.07 2413.53 1482.8 2450.8C1445.53 2488.07 1401.29 2517.64 1352.59 2537.81C1303.9 2557.98 1251.71 2568.36 1199 2568.36L1199 2930Z" fill="#131313"/>
<path opacity="0.7" d="M1962 2167C1962 2066.8 1942.26 1967.58 1903.92 1875.01C1865.58 1782.44 1809.37 1698.33 1738.52 1627.48C1667.67 1556.63 1583.56 1500.42 1490.99 1462.08C1398.42 1423.74 1299.2 1404 1199 1404L1199 1765.64C1251.71 1765.64 1303.9 1776.02 1352.59 1796.19C1401.29 1816.36 1445.54 1845.93 1482.8 1883.2C1520.07 1920.46 1549.64 1964.71 1569.81 2013.41C1589.98 2062.1 1600.36 2114.29 1600.36 2167L1962 2167Z" fill="white"/>
<path opacity="0.7" d="M436 2167C436 2267.2 455.736 2366.42 494.08 2458.99C532.424 2551.56 588.627 2635.67 659.478 2706.52C730.329 2777.37 814.441 2833.58 907.013 2871.92C999.584 2910.26 1098.8 2930 1199 2930L1199 2568.36C1146.29 2568.36 1094.1 2557.98 1045.41 2537.81C996.711 2517.64 952.465 2488.07 915.195 2450.8C877.926 2413.53 848.362 2369.29 828.191 2320.59C808.021 2271.9 797.64 2219.71 797.64 2167L436 2167Z" fill="white"/>
<path opacity="0.7" d="M3126 2167C3126 2066.8 3106.26 1967.58 3067.92 1875.01C3029.58 1782.44 2973.37 1698.33 2902.52 1627.48C2831.67 1556.63 2747.56 1500.42 2654.99 1462.08C2562.42 1423.74 2463.2 1404 2363 1404L2363 1765.64C2415.71 1765.64 2467.9 1776.02 2516.59 1796.19C2565.29 1816.36 2609.53 1845.93 2646.8 1883.2C2684.07 1920.47 2713.64 1964.71 2733.81 2013.41C2753.98 2062.1 2764.36 2114.29 2764.36 2167L3126 2167Z" fill="white"/>
<path d="M1401.2 3850C1401.2 3819.6 1431.6 3800.4 1477.2 3800.4C1498.8 3800.4 1520.4 3803.6 1541.2 3809.2C1541.2 3814.8 1541.2 3819.6 1541.2 3823.6C1541.2 3870.8 1524.4 3896.4 1475.6 3896.4C1433.2 3896.4 1401.2 3882.8 1401.2 3850ZM1638.8 3327.6H1524.4C1527.6 3343.6 1530 3368.4 1530 3380.4C1530 3397.2 1530.8 3430 1530.8 3469.2C1512.4 3470 1493.2 3470 1474.8 3470C1426.8 3470 1380.4 3467.6 1334.8 3462.8V3558C1382 3561.2 1427.6 3562.8 1474.8 3562.8C1493.2 3562.8 1512.4 3562.8 1531.6 3562C1532.4 3618.8 1535.6 3677.2 1537.2 3726.8C1521.2 3724.4 1503.6 3723.6 1485.2 3723.6C1376.4 3723.6 1307.6 3779.6 1307.6 3860.4C1307.6 3944.4 1376.4 3990.8 1486.8 3990.8C1594.8 3990.8 1638 3936.4 1642.8 3859.6C1674.8 3881.2 1706.8 3909.2 1740.4 3940.4L1795.6 3856.4C1757.2 3821.2 1706.8 3780.4 1640.4 3753.2C1637.2 3698.8 1633.2 3634.8 1631.6 3557.2C1675.6 3554 1717.2 3549.2 1755.6 3543.6V3443.6C1717.2 3451.6 1675.6 3458 1631.6 3462C1632.4 3426.8 1633.2 3397.2 1634 3379.6C1634.8 3362 1636.4 3342.8 1638.8 3327.6ZM1248.4 3336.4L1138 3326.8C1137.2 3352.4 1133.2 3382.8 1130 3405.2C1121.2 3466.8 1097.2 3618 1097.2 3738.8C1097.2 3847.6 1112.4 3938.8 1129.2 3994.8L1219.6 3987.6C1218.8 3976.4 1218 3962.8 1218 3954.8C1218 3946 1219.6 3928.4 1222 3917.2C1231.6 3874 1257.2 3792.4 1279.6 3726.8L1230.8 3686.8C1218.8 3714 1205.2 3741.2 1194.8 3769.2C1192.4 3753.2 1191.6 3733.2 1191.6 3717.2C1191.6 3637.2 1218 3461.2 1230 3407.6C1232.4 3393.2 1242 3352.4 1248.4 3336.4ZM1995.6 3350L1997.2 3454.8C2014.8 3451.6 2043.6 3449.2 2063.6 3447.6C2102 3445.2 2213.2 3439.6 2257.2 3438C2194 3503.6 1996.4 3664.4 1890 3746L1965.2 3825.2C2050.8 3738 2138 3658.8 2262 3658.8C2353.2 3658.8 2411.6 3706 2411.6 3769.2C2411.6 3874.8 2280.4 3922 2058.8 3893.2L2086.8 3997.2C2382.8 4021.2 2521.2 3928.4 2521.2 3770C2521.2 3658 2425.2 3574.8 2284.4 3574.8C2264.4 3574.8 2234.8 3577.2 2208.4 3585.2C2278 3532.4 2354.8 3470.8 2401.2 3436.4C2412.4 3429.2 2430.8 3417.2 2445.2 3409.2L2391.6 3338.8C2376.4 3342.8 2352.4 3346 2334 3347.6C2282 3350.8 2103.6 3353.2 2060.4 3353.2C2034 3353.2 2008.4 3351.6 1995.6 3350Z" fill="#333333"/>
</svg>
